<?xml version="1.0" standalone="no"?>
<!DOCTYPE svg PUBLIC "-//W3C//DTD SVG 20010904//EN"
 "http://www.w3.org/TR/2001/REC-SVG-20010904/DTD/svg10.dtd">
<svg version="1.0" xmlns="http://www.w3.org/2000/svg"
 width="700.000000pt" height="700.000000pt" viewBox="0 0 700.000000 700.000000"
 preserveAspectRatio="xMidYMid meet">
<metadata>
Created by potrace 1.14, written by Peter Selinger 2001-2017
</metadata>
<g transform="translate(0.000000,700.000000) scale(0.100000,-0.100000)"
fill="#000000" stroke="none">
<path d="M4103 6981 c-142 -49 -226 -162 -226 -305 0 -59 11 -103 63 -266 34
-107 73 -233 87 -280 14 -47 29 -94 34 -105 4 -11 42 -130 84 -265 43 -135 92
-294 112 -355 19 -60 45 -144 58 -185 89 -285 130 -413 147 -465 30 -94 30
-128 -1 -165 -33 -39 -88 -54 -128 -33 -50 25 -27 -39 -268 728 -64 204 -129
411 -145 460 -15 50 -49 156 -75 238 -60 190 -99 246 -212 303 -124 62 -293
25 -382 -82 -66 -81 -92 -184 -71 -279 6 -27 40 -140 75 -250 102 -321 367
-1159 369 -1170 13 -57 31 -94 50 -98 11 -2 212 -64 446 -137 234 -72 452
-140 485 -150 119 -35 270 -99 390 -164 596 -323 1004 -902 1109 -1576 13 -85
20 -222 20 -442 1 -131 2 -238 3 -238 10 0 152 94 213 140 292 223 502 538
600 899 28 104 34 136 50 256 5 33 8 447 7 920 l-2 860 -28 57 c-112 227 -430
256 -575 51 -50 -71 -57 -112 -67 -388 -4 -99 -8 -202 -10 -230 -2 -27 -4 -94
-6 -147 -1 -54 -3 -98 -4 -98 -3 0 -36 100 -90 275 -25 83 -50 159 -55 170 -4
11 -70 218 -145 460 -76 242 -148 472 -160 510 -13 39 -45 142 -73 230 -332
1054 -325 1035 -415 1108 -206 170 -524 16 -524 -253 0 -55 9 -91 66 -272 34
-108 49 -156 176 -558 47 -151 106 -336 130 -410 133 -416 173 -550 172 -579
-1 -14 -16 -40 -34 -58 -39 -38 -92 -45 -133 -16 -31 21 -38 30 -49 68 -5 17
-39 125 -76 240 -36 116 -91 289 -121 385 -30 96 -61 193 -69 215 -7 22 -37
114 -65 205 -29 91 -67 212 -85 270 -19 58 -59 186 -90 285 -31 99 -60 191
-65 205 -5 14 -28 86 -51 160 -47 153 -90 227 -157 274 -87 62 -196 80 -289
47z"/>
<path d="M2695 5620 c-121 -39 -212 -154 -222 -282 -5 -66 1 -97 55 -268 90
-285 164 -515 167 -518 1 -2 31 4 66 14 85 22 99 24 204 24 92 1 175 -16 358
-74 48 -15 77 -20 74 -13 -6 18 -40 124 -107 337 -34 107 -65 206 -70 220 -5
14 -32 99 -61 190 -62 199 -83 243 -143 298 -89 82 -206 108 -321 72z"/>
<path d="M2891 4149 c-69 -13 -126 -46 -179 -104 -148 -162 -93 -425 107 -513
52 -23 81 -34 341 -127 102 -36 201 -72 220 -80 19 -7 53 -20 75 -28 36 -13
-109 -15 -1346 -15 -1364 -1 -1387 -1 -1444 -21 -165 -58 -255 -213 -218 -376
25 -110 86 -184 193 -234 l55 -25 926 -1 c876 0 927 -1 953 -18 29 -19 56 -71
51 -97 -8 -39 -26 -70 -51 -86 -25 -17 -100 -18 -1163 -18 l-1136 -1 -61 -23
c-75 -28 -150 -97 -184 -168 -33 -67 -34 -196 -3 -266 30 -66 95 -133 162
-165 l56 -28 1155 -5 c1265 -5 1184 -1 1214 -64 24 -50 1 -117 -49 -140 -29
-14 -136 -16 -939 -16 -996 0 -950 3 -1046 -62 -224 -150 -169 -495 92 -580
22 -7 327 -11 954 -12 866 -2 923 -3 948 -20 66 -43 66 -139 -1 -183 -23 -15
-85 -17 -722 -18 -383 -1 -709 -5 -726 -10 -78 -21 -159 -80 -201 -147 -109
-173 -21 -415 173 -477 l68 -22 1545 4 c1523 3 1546 3 1640 24 195 43 329 91
484 175 461 251 785 731 843 1254 10 90 10 718 0 808 -45 408 -257 814 -563
1077 -90 78 -101 87 -176 137 -72 49 -234 142 -247 142 -4 0 -31 11 -59 25
-29 14 -58 25 -65 25 -8 0 -17 3 -21 8 -4 4 -11 7 -14 8 -4 0 -47 13 -97 28
-49 15 -337 104 -640 197 -302 94 -599 185 -660 204 -122 38 -179 45 -244 34z"/>
</g>
</svg>
