<?xml version="1.0" standalone="no"?>
<!DOCTYPE svg PUBLIC "-//W3C//DTD SVG 20010904//EN"
 "http://www.w3.org/TR/2001/REC-SVG-20010904/DTD/svg10.dtd">
<svg version="1.0" xmlns="http://www.w3.org/2000/svg"
 width="1200.000000pt" height="1193.000000pt" viewBox="0 0 1200.000000 1193.000000"
 preserveAspectRatio="xMidYMid meet">

<g transform="translate(0.000000,1193.000000) scale(0.100000,-0.100000)"
fill="#000000" stroke="none">
<path d="M5665 11634 c-148 -12 -386 -38 -505 -55 -1599 -240 -3031 -1157
-3923 -2514 -457 -696 -753 -1470 -876 -2290 -47 -310 -56 -444 -56 -850 0
-408 8 -536 56 -855 241 -1601 1159 -3032 2516 -3924 1125 -739 2451 -1053
3803 -900 1670 189 3192 1132 4122 2554 610 932 928 2001 928 3122 0 274 -12
465 -45 734 -206 1640 -1138 3132 -2530 4047 -777 510 -1624 811 -2570 913
-142 15 -791 28 -920 18z m715 -144 c1343 -95 2559 -636 3518 -1565 1525
-1478 2075 -3692 1421 -5722 -376 -1168 -1153 -2202 -2174 -2892 -788 -533
-1616 -832 -2595 -938 -208 -22 -823 -25 -1025 -5 -597 61 -1144 196 -1650
407 -1708 712 -2959 2231 -3324 4035 -82 404 -106 656 -106 1115 0 386 10 524
56 835 302 2004 1684 3698 3589 4400 509 187 1017 292 1610 333 113 8 549 6
680 -3z"/>
<path d="M5725 11264 c-410 -30 -662 -68 -993 -150 -790 -194 -1501 -555
-2152 -1094 -255 -211 -619 -594 -832 -876 -575 -763 -936 -1665 -1042 -2609
-167 -1483 283 -2954 1250 -4085 129 -150 428 -450 579 -579 682 -585 1511
-993 2385 -1175 388 -81 675 -110 1095 -110 421 0 706 29 1099 110 447 94 853
235 1276 445 1372 682 2380 1910 2785 3394 292 1071 231 2261 -171 3306 -428
1114 -1218 2053 -2246 2672 -667 402 -1409 647 -2218 733 -136 14 -698 27
-815 18z m695 -105 c1609 -117 3090 -993 3983 -2355 377 -575 629 -1191 761
-1859 63 -321 87 -548 93 -912 8 -407 -15 -706 -82 -1068 -85 -461 -269 -1006
-478 -1410 l-62 -120 -1422 -3 -1423 -2 0 2745 0 2745 -60 0 -60 0 0 328 c0
352 -4 393 -55 497 -22 45 -24 66 -28 215 -5 177 -17 243 -64 339 -48 99 -204
229 -316 263 -55 16 -123 -18 -213 -107 -130 -129 -174 -256 -174 -505 l0
-145 -35 -70 c-19 -38 -40 -94 -45 -124 -6 -29 -10 -197 -10 -372 l0 -319 -60
0 -60 0 0 -1002 0 -1003 -160 160 -160 160 0 283 0 283 -55 182 -56 182 -79
620 c-44 341 -80 627 -81 635 -2 42 -13 -53 -64 -590 l-57 -585 -54 -207 -54
-208 0 -272 0 -273 -157 -157 c-87 -87 -161 -158 -165 -158 -5 0 -8 439 -8
975 l0 975 -54 0 -54 0 -4 348 c-4 326 -6 351 -26 406 -12 33 -28 69 -36 80
-9 15 -15 73 -19 186 -9 262 -45 369 -167 483 -69 66 -209 147 -252 147 -37 0
-135 -68 -201 -139 -111 -121 -145 -226 -154 -476 -5 -153 -8 -174 -28 -210
-51 -90 -55 -124 -55 -487 l0 -338 -60 0 -60 0 0 -2745 0 -2745 -1448 0 -1449
0 -95 198 c-300 620 -468 1245 -519 1932 -17 231 -6 739 20 963 121 1004 499
1911 1122 2687 1021 1272 2574 1999 4194 1963 94 -2 231 -8 305 -14z m-1448
-787 c77 -81 114 -162 132 -289 l6 -43 -255 0 -255 0 0 33 c0 43 26 141 50
192 27 55 105 142 158 176 l43 27 33 -19 c19 -11 58 -45 88 -77z m2320 7 c79
-81 138 -215 138 -314 l0 -25 -256 0 -257 0 7 50 c19 144 88 264 193 340 55
39 56 39 87 23 17 -9 57 -42 88 -74z m-2185 -459 c-3 -22 -26 -76 -53 -121
l-47 -81 -49 53 c-27 30 -62 73 -77 96 -25 38 -29 40 -37 23 -10 -21 -136
-170 -144 -170 -12 1 -99 168 -105 203 l-7 37 262 0 263 0 -6 -40z m2323 3 c0
-25 -14 -61 -47 -117 -26 -45 -48 -83 -50 -85 -4 -5 -76 77 -125 142 -21 27
-38 42 -38 34 0 -8 -27 -44 -59 -81 -33 -36 -65 -75 -71 -87 -11 -20 -16 -14
-66 72 -35 61 -54 105 -54 127 l0 32 255 0 255 0 0 -37z m-2488 -287 c22 -50
23 -61 26 -383 l3 -333 -116 0 -116 0 3 343 c3 382 3 383 76 453 l36 34 32
-31 c18 -17 43 -55 56 -83z m-326 47 l29 -58 3 -352 3 -353 -76 0 -75 0 0 304
c0 167 5 327 10 356 11 59 54 160 68 160 5 0 22 -26 38 -57z m550 -5 l29 -63
3 -347 3 -348 -76 0 -75 0 0 313 c0 245 3 325 15 370 16 64 51 137 64 137 4 0
21 -28 37 -62z m1771 11 c36 -71 43 -140 43 -466 l0 -303 -75 0 -76 0 3 348 3
347 29 63 c16 34 33 61 39 59 5 -1 21 -23 34 -48z m278 24 c15 -15 37 -46 49
-68 20 -38 21 -54 24 -382 l3 -343 -116 0 -116 0 3 338 c3 285 5 342 19 373
20 43 76 109 94 109 7 0 25 -12 40 -27z m270 -26 c40 -86 45 -142 45 -463 l0
-304 -75 0 -76 0 3 348 3 347 29 63 c16 34 33 62 38 62 5 0 20 -24 33 -53z
m-1445 -1247 c9 -241 10 -248 55 -434 25 -105 45 -191 45 -193 0 -7 -239 -2
-243 5 -3 4 15 90 40 192 42 178 45 196 63 490 11 168 20 312 22 320 2 16 3
-5 18 -380z m-720 285 l0 -95 -467 2 -468 3 -3 93 -3 92 471 0 470 0 0 -95z
m2320 0 l0 -95 -465 0 -465 0 0 95 0 95 465 0 465 0 0 -95z m-2320 -545 l0
-370 -114 0 -115 0 -3 223 -3 222 -29 58 c-34 66 -95 127 -160 158 l-44 22
-45 -22 c-67 -32 -124 -93 -160 -169 l-32 -67 -3 -212 -4 -213 -114 0 -114 0
0 370 0 370 470 0 470 0 0 -370z m2320 0 l0 -370 -110 0 -110 0 0 180 c0 98
-5 203 -11 232 -24 111 -93 204 -186 249 l-45 22 -44 -22 c-65 -31 -130 -95
-161 -160 -28 -55 -28 -59 -31 -278 l-3 -223 -115 0 -114 0 0 370 0 370 465 0
465 0 0 -370z m-2733 191 c27 -19 51 -51 72 -92 l31 -62 0 -204 0 -203 -161 0
-161 0 4 203 c3 185 5 206 26 252 26 56 53 89 97 116 39 25 45 24 92 -10z
m2301 15 c41 -21 78 -65 104 -121 21 -46 23 -67 26 -252 l4 -203 -161 0 -161
0 0 193 c0 105 5 210 11 232 14 53 55 112 98 141 42 28 44 28 79 10z m-1888
-1131 l0 -475 -104 0 -105 0 -3 288 -3 288 -33 66 c-36 74 -96 134 -168 168
-54 25 -80 19 -154 -32 -62 -43 -98 -88 -129 -161 -25 -61 -26 -67 -29 -339
l-4 -278 -104 0 -104 0 0 468 c0 258 3 472 7 475 3 4 215 7 470 7 l463 0 0
-475z m2320 0 l0 -475 -99 0 -99 0 -4 278 c-4 262 -5 280 -28 337 -29 76 -123
173 -191 199 l-47 18 -56 -28 c-69 -34 -129 -96 -164 -172 -27 -57 -27 -57
-30 -344 l-3 -288 -105 0 -104 0 0 475 0 475 465 0 465 0 0 -475z m-1500 298
l0 -167 -63 62 -62 62 -63 -62 -62 -63 0 168 0 167 125 0 125 0 0 -167z
m-1224 -65 c31 -22 58 -52 78 -88 l31 -55 3 -282 3 -283 -181 0 -182 0 4 273
c3 257 5 275 26 322 27 58 43 78 96 116 50 37 63 36 122 -3z m2326 -1 c58 -45
95 -108 108 -187 5 -36 10 -167 10 -292 l0 -228 -181 0 -180 0 3 283 3 282 31
55 c31 56 108 120 144 120 10 0 38 -15 62 -33z m-932 -412 l295 -295 -590 0
-590 0 295 295 c162 162 295 295 295 295 0 0 133 -133 295 -295z m-990 -940
l0 -565 -470 0 -470 0 0 558 c0 307 3 562 7 565 3 4 215 7 470 7 l463 0 0
-565z m1290 335 l0 -230 -595 0 -595 0 0 230 0 230 595 0 595 0 0 -230z m1030
-335 l0 -565 -465 0 -465 0 0 565 0 565 465 0 465 0 0 -565z m-1030 -300 l0
-265 -185 0 -185 0 0 73 c0 40 -7 96 -15 123 -61 205 -359 205 -420 0 -8 -27
-15 -83 -15 -123 l0 -73 -185 0 -185 0 0 265 0 265 595 0 595 0 0 -265z
m-1290 -715 l0 -370 -467 2 -468 3 -3 355 c-1 195 0 361 3 367 3 10 106 13
470 13 l465 0 0 -370z m472 133 l3 -238 220 0 220 0 3 238 2 237 185 0 185 0
0 -370 0 -370 -595 0 -595 0 0 370 0 370 185 0 185 0 2 -237z m1848 -133 l0
-370 -465 0 -465 0 0 370 0 370 465 0 465 0 0 -370z m-2320 -1070 l0 -620
-470 0 -470 0 0 620 0 620 470 0 470 0 0 -620z m1290 0 l0 -620 -595 0 -595 0
0 620 0 620 595 0 595 0 0 -620z m1030 0 l0 -620 -465 0 -465 0 0 620 0 620
465 0 465 0 0 -620z m2907 -772 l-35 -63 -4497 0 -4497 0 -35 63 -35 62 4567
0 4567 0 -35 -62z m-183 -290 c-95 -138 -199 -277 -206 -278 -3 0 -16 16 -28
35 -33 54 -116 122 -178 146 -42 17 -79 23 -142 23 -75 1 -93 -3 -152 -31
-151 -71 -228 -206 -228 -399 l0 -64 -65 0 -65 0 0 53 c-1 203 -77 339 -230
411 -57 27 -75 31 -150 30 -63 0 -100 -6 -143 -23 -76 -30 -164 -111 -202
-188 -26 -51 -30 -71 -33 -170 l-4 -113 -68 0 -67 0 -5 105 c-4 95 -8 111 -41
179 -44 87 -94 136 -186 180 -58 27 -76 31 -151 30 -155 -1 -275 -75 -342
-212 -30 -60 -33 -76 -37 -174 l-3 -108 -68 0 -67 0 -5 108 c-4 88 -9 117 -30
164 -112 243 -426 301 -613 113 -81 -81 -114 -169 -115 -307 l0 -78 -70 0 -69
0 -11 43 c-67 264 -310 457 -575 457 -265 0 -508 -193 -575 -457 l-11 -43 -73
0 -74 0 -3 113 c-4 97 -8 119 -31 167 -116 236 -427 290 -611 105 -79 -79
-116 -185 -117 -332 l0 -53 -65 0 -65 0 0 70 c0 189 -77 322 -228 393 -59 28
-77 32 -152 31 -155 -1 -275 -75 -342 -212 -30 -60 -33 -76 -37 -174 l-3 -108
-69 0 -69 0 0 84 c0 155 -57 271 -170 348 -131 90 -304 87 -432 -7 -104 -77
-158 -192 -158 -341 l0 -84 -69 0 -69 0 -3 108 c-4 98 -7 114 -37 174 -41 83
-120 158 -200 189 -87 34 -207 33 -286 -4 -75 -35 -134 -83 -166 -136 -14 -22
-28 -41 -31 -41 -5 0 -155 205 -228 313 l-32 47 4406 0 4407 0 -58 -82z
m-4245 -321 c4 -4 29 24 56 63 26 38 49 69 50 68 2 -2 -7 -60 -18 -130 l-21
-128 -173 0 c-95 0 -173 3 -173 8 0 4 -7 48 -15 97 -30 179 -33 169 25 88 28
-40 53 -73 55 -73 2 0 27 45 56 101 l52 101 49 -94 c27 -51 53 -96 57 -101z
m-3787 127 c61 -20 121 -73 150 -132 21 -42 24 -65 28 -217 l5 -170 172 -3
171 -2 4 167 c3 144 6 174 24 213 45 97 144 160 249 159 106 -1 191 -50 240
-140 30 -53 30 -56 33 -227 l4 -172 171 2 172 3 5 170 c4 152 7 175 28 217 83
169 319 199 445 58 64 -70 71 -95 75 -283 l4 -167 172 2 171 3 5 175 c6 196
15 227 85 288 64 57 92 67 185 67 93 0 121 -10 185 -67 70 -61 79 -92 85 -288
l5 -175 108 -3 107 -3 0 -439 0 -440 -120 0 -120 0 0 -40 0 -40 120 0 120 0 0
-300 0 -301 -32 5 c-18 3 -69 10 -113 16 -516 70 -1049 232 -1541 469 -490
237 -902 521 -1320 909 -170 158 -444 456 -444 483 0 28 49 115 81 146 73 69
182 91 281 57z m4905 3 c60 -22 117 -72 148 -128 29 -53 30 -58 35 -224 l5
-170 170 0 170 0 5 170 c5 166 6 171 35 224 49 90 134 139 240 140 77 1 145
-30 202 -92 60 -65 73 -118 73 -299 l0 -148 173 2 172 3 5 176 c5 174 5 176
35 224 59 96 148 141 260 132 104 -8 183 -64 226 -162 20 -43 23 -71 27 -212
l4 -163 168 0 168 0 4 168 c5 184 14 219 82 290 69 74 184 101 287 67 60 -20
139 -91 156 -141 10 -29 6 -34 -101 -159 -375 -437 -856 -833 -1365 -1125
-556 -319 -1224 -550 -1831 -634 -63 -9 -130 -19 -147 -22 l-33 -5 0 301 0
300 198 0 c241 1 721 25 709 36 -13 13 -355 36 -604 41 l-303 6 0 438 0 439
130 0 130 0 0 148 c0 181 13 234 73 299 57 62 125 93 202 92 33 0 74 -6 92
-12z m-1016 -431 c22 -49 39 -103 39 -119 0 -39 -26 -67 -60 -67 -20 0 -33
-10 -51 -37 -64 -97 -204 -97 -268 0 -17 26 -32 37 -49 37 -64 0 -78 61 -37
153 13 31 31 72 39 92 l15 35 167 -2 167 -3 38 -89z m-361 -297 c36 -5 67 -15
69 -21 8 -24 68 -82 98 -94 39 -17 91 -18 130 -3 36 13 88 64 104 100 9 24 16
28 38 23 90 -20 140 -55 176 -127 14 -28 25 -57 25 -64 0 -10 -93 -13 -485
-13 -392 0 -485 3 -485 13 0 35 55 119 95 147 69 47 127 57 235 39z m464 -288
c10 -16 -45 -110 -86 -147 -131 -118 -315 -118 -446 1 -40 35 -95 132 -86 147
7 11 612 10 618 -1z m-681 -92 c34 -15 47 -41 77 -154 l27 -100 36 -3 37 -3 0
-70 0 -69 -85 0 -85 0 0 -40 0 -40 125 0 125 0 0 50 0 50 155 0 155 0 0 60 0
60 34 0 c38 0 39 1 71 130 22 86 38 115 74 130 62 25 121 -13 121 -80 0 -36
-15 -80 -107 -307 -4 -9 -33 -13 -99 -13 l-94 0 0 -40 0 -40 121 0 120 0 21
50 c21 51 53 71 43 28 -3 -13 -25 -151 -50 -308 -25 -156 -48 -287 -51 -290
-7 -7 -791 -7 -798 1 -3 3 -26 133 -51 290 -25 156 -47 294 -50 307 -5 21 -2
22 50 22 30 0 55 4 55 9 0 4 -22 63 -50 129 -50 121 -60 175 -39 213 18 35 69
48 112 28z"/>
<path d="M4785 10806 c-34 -34 -41 -71 -21 -113 19 -39 72 -67 111 -57 38 9
75 59 75 101 0 80 -109 125 -165 69z"/>
<path d="M7109 10801 c-77 -77 6 -199 106 -157 47 20 71 73 55 121 -23 69
-109 88 -161 36z"/>
<path d="M8182 10206 c-47 -51 -56 -77 -17 -52 13 9 32 16 41 16 23 0 174 -81
174 -94 0 -10 -186 -330 -253 -434 l-41 -64 -40 7 c-52 8 -46 3 93 -79 110
-64 155 -81 92 -35 -18 13 -31 32 -31 44 0 21 63 137 212 388 38 64 72 117 74
117 16 0 144 -92 154 -109 6 -11 8 -32 4 -46 -3 -14 -4 -25 -1 -25 7 0 67 98
67 109 0 5 -12 13 -27 19 -42 14 -404 230 -434 258 l-26 25 -41 -45z"/>
<path d="M3655 10152 c-137 -59 -202 -145 -176 -237 24 -89 97 -135 255 -160
54 -9 112 -23 128 -31 32 -17 68 -69 68 -99 0 -38 -39 -86 -87 -107 -39 -17
-52 -19 -84 -9 -21 6 -49 25 -64 42 -40 48 -41 27 -3 -43 42 -76 60 -81 148
-42 105 47 172 145 155 227 -11 50 -52 113 -87 135 -46 27 -88 39 -201 56 -53
8 -109 21 -123 30 -26 17 -44 53 -44 86 0 28 47 77 86 90 43 15 73 8 113 -26
17 -14 31 -21 31 -15 0 15 -60 121 -68 120 -4 0 -25 -8 -47 -17z"/>
<path d="M8898 9797 c12 -13 22 -33 22 -45 0 -12 -52 -82 -130 -174 -72 -84
-140 -173 -152 -197 -48 -99 -32 -193 49 -275 73 -75 126 -101 203 -101 110 0
161 38 358 268 93 108 120 125 150 95 6 -6 15 -9 18 -5 4 3 -8 19 -27 34 -18
15 -58 49 -88 76 -55 47 -83 57 -43 14 12 -13 22 -30 22 -39 0 -17 -154 -203
-249 -301 -72 -73 -131 -104 -178 -93 -57 14 -111 55 -132 99 -27 57 -26 92 4
154 26 51 273 347 297 356 7 2 25 -2 41 -10 41 -20 33 -1 -15 38 -24 19 -67
55 -96 81 -53 49 -93 67 -54 25z"/>
<path d="M5973 9716 c-39 -18 -53 -43 -53 -94 0 -56 37 -92 95 -92 32 0 48 6
68 25 79 80 -7 206 -110 161z"/>
<path d="M2988 9715 c-7 -8 -5 -16 98 -359 46 -153 84 -295 84 -316 0 -24 -7
-43 -20 -55 -11 -10 -18 -20 -16 -23 6 -6 176 130 176 140 0 5 -12 1 -26 -8
-35 -23 -47 -10 -83 98 l-29 87 80 63 c45 35 86 62 92 60 35 -10 170 -98 174
-114 2 -10 6 -18 9 -18 10 0 173 134 173 142 0 5 -11 1 -25 -8 -47 -31 -88
-14 -377 150 -296 167 -301 170 -310 161z m202 -216 c55 -34 100 -64 100 -68
-1 -8 -120 -96 -128 -94 -7 2 -83 223 -77 223 3 0 50 -28 105 -61z"/>
<path d="M2678 9433 c-9 -16 -96 -109 -192 -208 -111 -114 -173 -185 -170
-195 7 -24 62 -86 69 -78 4 3 2 15 -4 26 -16 30 -2 58 65 130 l59 64 202 -192
c118 -111 206 -202 209 -216 4 -14 1 -31 -6 -39 -7 -9 -11 -18 -8 -20 5 -6
181 169 186 186 6 16 -14 10 -33 -11 -37 -40 -42 -37 -333 239 l-144 136 66
63 c68 63 106 78 134 50 7 -7 12 -8 12 -3 0 10 -81 95 -90 95 -3 0 -13 -12
-22 -27z"/>
<path d="M9600 9167 c0 -3 7 -22 17 -41 13 -29 14 -38 3 -51 -22 -27 -407
-333 -440 -350 -31 -16 -33 -16 -56 6 -13 12 -24 17 -24 11 0 -15 161 -214
168 -207 3 2 -3 16 -12 29 -9 14 -16 32 -16 39 0 20 160 167 182 167 3 0 17
-17 31 -37 l26 -38 -30 -105 c-55 -196 -51 -236 32 -333 45 -52 58 -56 34 -11
-22 42 -19 117 11 256 14 68 27 130 29 138 4 12 23 15 93 15 82 0 91 2 125 28
68 52 86 130 47 207 -25 50 -220 295 -220 277z m124 -209 c56 -75 34 -165 -58
-225 -82 -55 -146 -39 -192 48 -13 26 -12 27 99 117 62 50 115 92 119 92 4 0
18 -15 32 -32z"/>
<path d="M2107 8768 c-75 -103 -89 -132 -42 -88 21 20 28 22 50 12 37 -17 416
-296 448 -330 25 -26 27 -33 17 -52 -22 -42 -1 -32 32 15 18 26 54 75 80 108
51 67 55 87 8 42 -29 -28 -31 -28 -62 -13 -39 19 -412 289 -447 323 -22 21
-23 27 -12 51 24 53 3 33 -72 -68z"/>
<path d="M10115 8446 c6 -29 3 -36 -22 -54 -57 -41 -459 -273 -482 -279 -18
-4 -29 0 -43 17 -41 50 -24 8 37 -95 36 -60 66 -114 68 -120 3 -5 7 -7 11 -3
4 3 0 20 -8 36 -9 17 -13 38 -10 47 6 14 360 232 463 285 50 25 63 25 86 0 34
-38 28 -11 -15 62 -24 40 -52 88 -63 106 -24 41 -30 41 -22 -2z"/>
<path d="M1869 8422 c-135 -153 -91 -339 84 -350 53 -3 77 1 157 31 52 20 113
39 135 42 57 9 106 -20 124 -72 13 -37 13 -43 -8 -87 -34 -68 -102 -94 -175
-66 -43 16 -30 -7 22 -40 71 -45 88 -47 122 -15 35 34 86 128 95 176 14 78
-33 166 -110 200 -64 29 -123 24 -243 -21 -125 -48 -173 -52 -207 -20 -35 33
-39 65 -15 115 26 54 73 80 131 70 21 -4 39 -5 39 -2 0 3 -27 21 -60 40 l-59
36 -32 -37z"/>
<path d="M10133 7950 c-107 -22 -204 -94 -251 -185 -54 -105 -38 -270 40 -417
47 -89 57 -94 131 -79 76 15 97 31 40 31 -55 0 -101 34 -138 100 -26 48 -30
65 -30 135 0 67 5 88 27 130 44 83 116 139 217 169 149 44 266 -12 314 -149
39 -110 30 -175 -31 -225 -45 -37 -28 -39 59 -6 41 15 65 30 68 42 11 56 -82
284 -144 352 -70 78 -202 122 -302 102z"/>
<path d="M1613 7805 c-44 -19 -86 -81 -122 -179 -16 -46 -41 -111 -55 -145
-29 -68 -30 -71 -16 -71 6 0 10 6 10 13 0 18 32 47 53 47 26 0 497 -186 526
-208 21 -15 25 -26 23 -53 -2 -19 -2 -32 1 -29 11 12 97 244 94 254 -2 6 -11
-3 -20 -21 -9 -17 -22 -35 -28 -38 -14 -10 -229 66 -229 81 0 6 7 27 15 47 13
32 20 36 97 56 224 59 254 79 297 190 26 70 23 86 -8 42 -12 -16 -36 -39 -54
-50 -26 -16 -297 -111 -316 -111 -3 0 -14 21 -25 46 -47 115 -150 170 -243
129z m112 -106 c55 -15 115 -77 115 -118 0 -29 -34 -111 -45 -111 -3 0 -66 23
-141 52 -132 50 -135 52 -129 77 10 39 32 70 68 91 36 22 74 25 132 9z"/>
<path d="M10670 7162 c0 -34 -4 -41 -27 -51 -48 -19 -476 -112 -528 -114 -45
-2 -50 0 -63 26 -21 44 -25 26 -8 -39 8 -33 24 -104 35 -159 34 -179 37 -185
75 -185 46 0 96 11 96 21 0 4 -17 9 -37 11 -33 3 -41 8 -56 40 -27 54 -34 140
-13 157 16 13 201 61 236 61 23 0 30 -20 37 -102 6 -66 5 -68 -21 -77 -44 -17
-29 -23 37 -16 76 9 82 12 63 33 -18 21 -57 170 -46 177 12 7 224 55 227 51 2
-2 10 -36 17 -76 16 -82 9 -114 -25 -123 -43 -12 -10 -19 51 -12 52 6 60 10
54 24 -10 23 -72 287 -80 339 -8 55 -24 64 -24 14z"/>
<path d="M1324 7103 c-3 -21 -21 -108 -40 -194 -36 -167 -41 -203 -18 -151 24
55 10 56 372 -24 247 -54 252 -56 252 -101 0 -46 16 -33 24 19 4 24 23 110 42
192 19 81 33 154 31 160 -6 14 -115 51 -123 43 -3 -3 8 -13 24 -21 17 -9 34
-25 37 -37 9 -26 -2 -103 -20 -146 -17 -41 -41 -42 -186 -11 l-101 21 5 41 c3
23 12 59 19 81 12 36 17 41 53 46 44 6 39 10 -40 34 -65 19 -68 19 -60 -5 7
-23 -11 -147 -25 -170 -7 -12 -25 -10 -116 9 -60 12 -112 24 -115 27 -4 2 1
37 12 76 19 78 47 113 80 103 11 -4 19 -2 19 4 0 8 -92 41 -114 41 -3 0 -8
-17 -12 -37z"/>
<path d="M1217 6580 c-11 -63 -15 -180 -6 -186 5 -3 9 6 9 21 0 14 7 28 14 31
13 5 437 -186 459 -206 5 -4 -35 -22 -90 -38 -299 -93 -374 -114 -388 -108 -8
3 -15 18 -16 33 l-1 28 -8 -30 c-10 -39 -22 -260 -13 -251 4 4 12 21 18 39 6
21 22 38 45 50 19 10 169 63 333 119 217 73 297 105 295 115 -2 8 -134 82
-294 166 -160 84 -301 159 -313 167 -12 8 -26 31 -30 50 l-8 35 -6 -35z"/>
<path d="M10163 6383 c4 -38 7 -93 8 -123 l1 -55 10 38 c6 20 19 42 29 48 11
5 86 14 167 19 81 5 178 12 217 15 l69 7 -164 -169 c-198 -202 -334 -353 -326
-360 3 -3 148 -5 322 -4 338 3 344 2 344 -47 0 -14 4 -22 8 -16 11 13 2 235
-9 228 -5 -3 -9 -18 -9 -33 0 -16 -6 -34 -14 -40 -9 -8 -99 -17 -238 -26 -123
-7 -224 -12 -224 -12 -1 1 110 119 246 262 137 143 246 263 244 267 -3 4 -146
4 -319 1 -337 -7 -345 -6 -345 43 0 13 -5 24 -11 24 -9 0 -10 -20 -6 -67z"/>
<path d="M1841 5780 c-2 -51 -12 -60 -77 -69 -91 -13 -518 -35 -537 -28 -9 3
-21 21 -27 39 -8 26 -9 11 -5 -67 3 -55 5 -115 5 -132 0 -18 5 -33 10 -33 6 0
10 13 10 30 0 25 5 30 38 39 51 13 529 40 561 31 14 -3 28 -15 29 -26 2 -10 8
-23 13 -28 10 -11 1 204 -11 249 l-8 30 -1 -35z"/>
<path d="M10151 5451 c-60 -139 -25 -273 84 -322 90 -41 176 -13 295 98 84 78
107 93 145 93 94 0 123 -128 44 -194 -18 -15 -43 -26 -60 -26 -46 0 -34 -17
19 -25 26 -3 57 -9 68 -12 19 -4 24 2 37 44 24 76 29 127 17 174 -24 88 -75
130 -160 131 -66 0 -120 -27 -208 -107 -84 -75 -118 -95 -165 -95 -68 0 -114
69 -97 145 14 61 71 105 137 105 44 0 14 17 -51 29 -84 15 -81 16 -105 -38z"/>
<path d="M1585 5244 c-143 -29 -276 -54 -296 -54 -32 0 -38 4 -50 32 -7 17
-14 27 -16 22 -4 -11 44 -224 52 -232 3 -3 5 15 5 40 0 40 3 47 28 56 44 18
394 103 408 100 9 -2 -56 -110 -181 -297 -107 -162 -192 -298 -188 -302 5 -3
136 20 293 52 157 32 301 58 320 56 27 -1 38 -8 48 -30 23 -47 23 -26 1 79
-28 128 -37 153 -38 97 -1 -37 -5 -45 -31 -58 -26 -13 -384 -105 -410 -105 -6
0 17 37 49 83 80 113 313 478 319 500 7 25 -20 22 -313 -39z"/>
<path d="M10017 4779 c-21 -73 -36 -134 -33 -136 2 -2 12 13 22 34 17 34 23
38 54 37 36 -1 454 -114 522 -141 32 -13 37 -20 40 -51 5 -45 8 -38 47 103 30
107 34 144 10 91 -7 -15 -22 -29 -33 -32 -21 -5 -434 107 -531 143 -46 18 -50
21 -49 51 3 61 -12 31 -49 -99z"/>
<path d="M1860 4441 c-30 -10 -120 -46 -199 -80 -79 -33 -152 -61 -162 -61
-10 0 -26 11 -35 25 -32 50 -26 15 16 -82 48 -114 61 -131 53 -76 -7 52 -5 53
222 150 155 66 188 77 240 77 72 1 114 -24 145 -84 41 -81 20 -168 -53 -224
-33 -26 -306 -148 -391 -176 -38 -12 -40 -12 -63 16 -30 37 -29 16 0 -44 13
-26 34 -74 47 -107 30 -77 43 -92 35 -40 -5 29 -3 44 7 52 8 7 81 41 164 76
193 83 227 101 274 143 76 69 90 173 36 289 -66 146 -182 196 -336 146z"/>
<path d="M9895 4403 c-33 -36 -73 -119 -81 -170 -20 -127 92 -237 225 -219 24
3 93 31 154 61 69 34 122 55 144 55 69 0 105 -78 69 -149 -23 -43 -44 -56
-105 -62 l-56 -5 65 -31 65 -31 19 21 c30 35 66 121 72 174 4 38 0 57 -18 92
-36 70 -66 86 -156 86 -73 0 -82 -3 -182 -53 -92 -47 -111 -53 -150 -49 -108
12 -135 144 -44 216 25 20 37 22 91 18 40 -3 61 -1 57 5 -5 8 -128 68 -140 68
-2 0 -15 -12 -29 -27z"/>
<path d="M4816 8285 c-46 -42 -56 -82 -56 -215 l0 -121 93 3 92 3 -1 125 c0
136 -10 170 -60 209 -34 26 -35 26 -68 -4z"/>
<path d="M7146 8289 c-51 -40 -60 -73 -61 -209 l0 -125 93 -3 92 -3 0 121 c0
133 -10 173 -56 215 -33 30 -34 30 -68 4z"/>
<path d="M4819 7373 c-53 -45 -59 -73 -59 -268 l0 -175 96 0 96 0 -4 183 c-4
200 -11 226 -67 266 l-29 21 -33 -27z"/>
<path d="M7146 7379 c-53 -42 -60 -69 -64 -266 l-4 -183 96 0 96 0 0 168 c0
180 -7 222 -42 260 -38 40 -53 44 -82 21z"/>
<path d="M5964 7137 c-2 -7 -3 -56 -2 -108 l3 -94 53 -3 53 -3 -3 108 -3 108
-48 3 c-33 2 -49 -1 -53 -11z"/>
<path d="M4840 6133 c-35 -12 -40 -35 -40 -175 l0 -138 50 0 51 0 -3 146 c-3
134 -5 148 -23 159 -11 7 -27 10 -35 8z"/>
<path d="M7151 6123 c-20 -13 -21 -24 -21 -159 l0 -144 50 0 50 0 0 129 c0 71
-4 141 -9 154 -12 30 -43 39 -70 20z"/>
<path d="M4815 5306 c-13 -19 -15 -50 -13 -157 l3 -134 48 -3 47 -3 0 150 c0
138 -2 151 -19 161 -31 16 -49 12 -66 -14z"/>
<path d="M7142 5318 c-8 -8 -12 -58 -12 -161 l0 -148 48 3 47 3 3 134 c2 107
0 138 -13 157 -17 26 -53 32 -73 12z"/>
<path d="M4795 4405 c-24 -23 -25 -29 -25 -160 l0 -135 80 0 80 0 0 135 c0
131 -1 137 -25 160 -15 16 -36 25 -55 25 -19 0 -40 -9 -55 -25z"/>
<path d="M5707 4419 c-39 -23 -47 -61 -47 -219 l0 -150 95 0 95 0 0 161 0 161
-29 29 c-31 31 -79 38 -114 18z"/>
<path d="M6209 4401 l-29 -29 0 -161 0 -161 95 0 95 0 0 150 c0 115 -4 158
-15 180 -30 59 -98 68 -146 21z"/>
<path d="M7119 4404 c-23 -24 -24 -32 -24 -157 l0 -132 80 0 80 0 0 132 c0
125 -1 133 -24 157 -16 17 -35 26 -56 26 -21 0 -40 -9 -56 -26z"/>
<path d="M3155 2078 c-2 -7 -16 -84 -29 -171 -14 -86 -28 -162 -31 -167 -3 -6
-13 -10 -21 -10 -8 0 -14 -4 -14 -10 0 -6 28 -10 65 -10 37 0 65 4 65 10 0 6
-9 10 -21 10 -20 0 -21 3 -14 63 4 34 10 80 14 101 l6 39 55 -108 c31 -60 61
-110 67 -112 7 -3 37 45 71 113 l58 117 13 -99 c7 -55 11 -106 9 -114 -2 -12
11 -16 65 -18 42 -2 67 1 67 8 0 5 -9 10 -19 10 -11 0 -23 6 -28 13 -4 6 -19
86 -33 176 -16 105 -30 166 -38 169 -8 2 -36 -46 -78 -132 -36 -75 -68 -134
-72 -132 -4 2 -36 63 -72 135 -62 127 -76 145 -85 119z"/>
<path d="M4216 2079 c-124 -30 -183 -175 -117 -283 40 -64 151 -103 252 -90
56 8 72 26 67 77 l-4 32 -12 -28 c-31 -72 -173 -56 -222 25 -43 71 -33 167 21
212 59 50 199 26 199 -35 0 -10 5 -19 10 -19 12 0 14 97 2 104 -18 11 -159 15
-196 5z"/>
<path d="M4601 2076 c-113 -37 -162 -155 -110 -264 38 -78 141 -120 257 -106
59 7 75 25 70 77 l-4 32 -13 -27 c-18 -35 -61 -52 -113 -45 -54 7 -88 33 -115
87 -27 52 -29 95 -7 150 21 51 56 70 129 70 46 0 60 -4 80 -25 14 -13 25 -31
25 -40 0 -9 5 -13 10 -10 12 7 13 92 2 99 -23 14 -169 15 -211 2z"/>
<path d="M4999 2075 c-119 -38 -169 -192 -96 -289 42 -55 107 -80 204 -80 46
0 88 5 94 11 6 6 13 30 16 54 l6 44 -36 -39 c-35 -37 -39 -38 -88 -34 -88 9
-141 65 -146 155 -7 102 36 153 129 153 65 0 97 -14 109 -50 6 -16 15 -27 20
-24 11 7 12 91 1 98 -24 14 -170 15 -213 1z"/>
<path d="M3610 2071 c0 -6 8 -11 19 -11 23 0 31 -40 31 -156 0 -124 -9 -171
-34 -180 -13 -5 31 -9 112 -11 114 -3 139 -1 176 16 65 28 99 80 104 156 5 79
-20 131 -82 166 -37 22 -55 24 -183 27 -99 3 -143 1 -143 -7z m266 -52 c46
-28 64 -66 64 -134 0 -70 -21 -112 -65 -131 -42 -17 -117 -18 -133 -2 -13 13
-18 279 -4 292 13 14 102 -2 138 -25z"/>
<path d="M4939 1421 c-55 -55 -29 -153 44 -166 100 -19 163 100 88 167 -43 39
-92 38 -132 -1z"/>
<path d="M6763 2074 c4 -4 17 -12 29 -18 21 -11 116 -140 117 -160 2 -19 -111
-157 -137 -169 -25 -11 -22 -12 37 -15 64 -3 86 3 62 17 -9 6 -4 22 24 65 20
31 40 54 45 51 16 -10 64 -100 63 -117 -2 -16 8 -18 68 -18 67 0 91 12 47 24
-14 3 -40 31 -63 67 -22 34 -48 74 -57 88 -17 26 -16 27 33 95 28 37 59 71 70
73 39 11 17 23 -41 23 -33 0 -60 -4 -60 -9 0 -5 7 -11 15 -13 12 -2 7 -15 -21
-57 l-36 -54 -30 52 c-24 42 -28 54 -18 66 11 13 1 15 -70 15 -46 0 -80 -3
-77 -6z"/>
<path d="M7180 2074 c0 -3 12 -9 28 -15 31 -11 127 -152 118 -175 -13 -35
-103 -144 -123 -150 -45 -12 -22 -24 45 -24 57 1 64 3 50 14 -16 12 -15 17 18
69 20 32 38 57 40 57 9 0 74 -110 74 -125 0 -12 13 -15 65 -15 37 0 65 4 65
10 0 6 -6 10 -13 10 -19 0 -47 33 -100 116 l-45 71 54 71 c30 40 61 72 69 72
8 0 15 5 15 10 0 6 -27 10 -60 10 -33 0 -60 -4 -60 -9 0 -5 7 -11 15 -13 11
-2 8 -14 -16 -50 -17 -27 -35 -48 -39 -48 -15 0 -64 94 -52 98 7 2 12 8 12 13
0 5 -36 9 -80 9 -44 0 -80 -2 -80 -6z"/>
<path d="M7610 2071 c0 -5 11 -11 24 -15 15 -4 40 -33 73 -84 l50 -79 -59 -82
c-39 -53 -66 -81 -79 -81 -10 0 -19 -4 -19 -10 0 -6 29 -10 68 -10 56 1 64 3
50 13 -15 12 -13 18 18 67 19 30 38 56 42 58 10 3 72 -102 72 -122 0 -13 13
-16 70 -16 74 0 85 5 46 20 -22 8 -117 134 -132 175 -7 18 92 155 111 155 8 0
17 5 20 10 4 6 -19 10 -62 10 -60 -1 -66 -2 -50 -15 18 -13 17 -16 -16 -65
l-35 -51 -32 53 c-20 31 -28 54 -21 56 6 2 11 8 11 13 0 5 -34 9 -75 9 -41 0
-75 -4 -75 -9z"/>
<path d="M8080 2071 c0 -5 9 -11 20 -14 19 -5 20 -14 20 -162 0 -148 -1 -157
-20 -162 -46 -12 -14 -23 66 -23 54 0 83 4 79 10 -3 6 -14 10 -24 10 -26 0
-31 26 -31 172 0 134 4 158 26 158 8 0 14 5 14 10 0 6 -32 10 -75 10 -41 0
-75 -4 -75 -9z"/>
<path d="M8380 2071 c0 -5 9 -11 20 -14 19 -5 20 -14 20 -162 0 -148 -1 -157
-20 -162 -46 -12 -15 -23 65 -23 50 0 85 4 85 10 0 6 -11 10 -24 10 -22 0 -23
4 -30 90 -9 115 2 240 20 240 7 0 16 5 19 10 4 6 -23 10 -74 10 -45 0 -81 -4
-81 -9z"/>
<path d="M8685 2070 c3 -5 13 -10 21 -10 12 0 14 -28 14 -165 0 -158 -1 -165
-20 -165 -11 0 -20 -4 -20 -10 0 -6 35 -10 85 -10 50 0 85 4 85 10 0 6 -11 10
-25 10 l-25 0 0 165 c0 137 2 165 14 165 8 0 18 5 21 10 4 6 -23 10 -75 10
-52 0 -79 -4 -75 -10z"/>
<path d="M6040 2320 l0 -90 30 0 c29 0 30 1 30 50 0 47 2 50 25 50 23 0 25 4
25 40 l0 40 -55 0 -55 0 0 -90z"/>
</g>
</svg>
